# xmcd
#
# Track frame offsets:
#	150
#	9854
#	28494
#	40857
#	51218
#	76309
#	110456
#	135020
#	160522
#	182687
#	198700
#	218120
#	234805
#	253403
#	290413
#	308491
#
# Disc length: 4369 seconds
#
# Revision: 0
# Processed by: cddbd v1.5.2PL0 Copyright (c) Steve Scherf et al.
# Submitted via: dBpowerAMP V4.0
#
DISCID=cd110f10
DTITLE=Gillan - Talisman- in the studio
DYEAR=1900
DGENRE=
TTITLE0=Cherkazoo
TTITLE1=The bull of birantis
TTITLE2=Hogwash
TTITLE3=Driving me wild
TTITLE4=Night and day
TTITLE5=Clear air turbulence
TTITLE6=Goodhand lisa
TTITLE7=Money lender
TTITLE8=Scarabus
TTITLE9=Mercury high
TTITLE10=Mad Elaine
TTITLE11=Gut reaction
TTITLE12=No more good luck
TTITLE13=No more cane on the brezos
TTITLE14=Hang me out to dry
TTITLE15=Candy horizon
EXTD=
EXTT0=
EXTT1=
EXTT2=
EXTT3=
EXTT4=
EXTT5=
EXTT6=
EXTT7=
EXTT8=
EXTT9=
EXTT10=
EXTT11=
EXTT12=
EXTT13=
EXTT14=
EXTT15=
PLAYORDER=
